#Comment line ignore any data following # character 
#Hierarchical Translation and Rotation (.htr) file 
[Header]	
#Header keywords are followed by a single value 
FileType HTR		#Single word string
DataType HTRS		#Translation followed by rotation and scale data
FileVersion 1		#integer
NumSegments 84		#integer
NumFrames 2		#integer
DataFrameRate 30		#integer, data frame rate in this file
EulerRotationOrder ZYX
CalibrationUnits mm
RotationUnits Degrees
GlobalAxisofGravity Y
BoneLengthAxis Y
ScaleFactor 1.00
[SegmentNames&Hierarchy]
#CHILD	PARENT
MASTER GLOBAL
root MASTER
chest root
L_mid_tent01 root
R_mid_tent01 root
spine01 root
Bip01_Neck chest
L_humerus chest
R_humerus chest
weapon_bone chest
Bip01_Head Bip01_Neck
eye_left_bone Bip01_Head
eye_right_bone Bip01_Head
L_forearm L_humerus
L_front_hand L_forearm
L_weapon_bone L_forearm
L_front_hand01_01 L_front_hand
L_front_hand02_01 L_front_hand
L_front_hand03_01 L_front_hand
L_front_hand01_02 L_front_hand01_01
L_front_hand02_02 L_front_hand02_01
L_front_hand03_02 L_front_hand03_01
R_forearm R_humerus
R_front_hand R_forearm
R_weapon_bone R_forearm
R_front_hand01_01 R_front_hand
R_front_hand02_01 R_front_hand
R_front_hand03_01 R_front_hand
R_front_hand01_02 R_front_hand01_01
R_front_hand02_02 R_front_hand02_01
R_front_hand03_02 R_front_hand03_01
null_rope01_connect L_mid_tent01
Rope1_Seg01 null_rope01_connect
Rope1_Seg02 Rope1_Seg01
Rope1_Seg03 Rope1_Seg02
Rope1_Seg04 Rope1_Seg03
Rope1_Seg05 Rope1_Seg04
Rope1_Seg06 Rope1_Seg05
Rope1_Seg07 Rope1_Seg06
Rope1_Seg09 Rope1_Seg07
L_mid_hand01 Rope1_Seg09
L_mid_hand02 Rope1_Seg09
L_mid_hand03 Rope1_Seg09
null_rope02_connect R_mid_tent01
Rope2_Seg01 null_rope02_connect
Rope2_Seg02 Rope2_Seg01
Rope2_Seg03 Rope2_Seg02
Rope2_Seg04 Rope2_Seg03
Rope2_Seg05 Rope2_Seg04
Rope2_Seg06 Rope2_Seg05
Rope2_Seg07 Rope2_Seg06
Rope2_Seg09 Rope2_Seg07
R_mid_hand01 Rope2_Seg09
R_mid_hand02 Rope2_Seg09
R_mid_hand03 Rope2_Seg09
spine02 spine01
spine03 spine02
pelvis spine03
null_rope03_connect pelvis
null_rope04_connect pelvis
Rope3_Seg01 null_rope03_connect
Rope3_Seg02 Rope3_Seg01
Rope3_Seg03 Rope3_Seg02
Rope3_Seg04 Rope3_Seg03
Rope3_Seg05 Rope3_Seg04
Rope3_Seg06 Rope3_Seg05
Rope3_Seg07 Rope3_Seg06
Rope3_Seg08 Rope3_Seg07
Rope3_Seg09 Rope3_Seg08
R_rear_hand01 Rope3_Seg09
R_rear_hand02 Rope3_Seg09
R_rear_hand03 Rope3_Seg09
Rope4_Seg01 null_rope04_connect
Rope4_Seg02 Rope4_Seg01
Rope4_Seg03 Rope4_Seg02
Rope4_Seg04 Rope4_Seg03
Rope4_Seg05 Rope4_Seg04
Rope4_Seg06 Rope4_Seg05
Rope4_Seg07 Rope4_Seg06
Rope4_Seg08 Rope4_Seg07
Rope4_Seg09 Rope4_Seg08
L_rear_hand01 Rope4_Seg09
L_rear_hand02 Rope4_Seg09
L_rear_hand03 Rope4_Seg09
[BasePosition]
#SegmentName Tx, Ty, Tz, Rx, Ry, Rz, BoneLength
MASTER 0.000000 0.000000 0.000000 -90.000000 0.000000 0.000000 10.000000 
root 0.000000 0.000000 0.000000 0.000000 0.000000 0.000000 10.000000 
chest 0.000000 0.000000 0.000000 0.000000 0.000000 0.000000 10.000000 
L_mid_tent01 0.000000 0.000000 0.000000 0.000000 0.000000 0.000000 10.000000 
R_mid_tent01 0.000000 0.000000 0.000000 0.000000 0.000000 0.000000 10.000000 
spine01 0.000000 0.000000 0.000000 0.000000 0.000000 0.000000 10.000000 
Bip01_Neck 0.000000 0.000000 0.000000 0.000000 0.000000 0.000000 10.000000 
L_humerus 0.000000 0.000000 0.000000 0.000000 0.000000 0.000000 10.000000 
R_humerus 0.000000 0.000000 0.000000 0.000000 0.000000 0.000000 10.000000 
weapon_bone 0.000000 0.000000 0.000000 0.000000 0.000000 0.000000 10.000000 
Bip01_Head 0.000000 0.000000 0.000000 0.000000 0.000000 0.000000 10.000000 
eye_left_bone 0.000000 0.000000 0.000000 0.000000 0.000000 0.000000 10.000000 
eye_right_bone 0.000000 0.000000 0.000000 0.000000 0.000000 0.000000 10.000000 
L_forearm 0.000000 0.000000 0.000000 0.000000 0.000000 0.000000 10.000000 
L_front_hand 0.000000 0.000000 0.000000 0.000000 0.000000 0.000000 10.000000 
L_weapon_bone 0.000000 0.000000 0.000000 0.000000 0.000000 0.000000 10.000000 
L_front_hand01_01 0.000000 0.000000 0.000000 0.000000 0.000000 0.000000 10.000000 
L_front_hand02_01 0.000000 0.000000 0.000000 0.000000 0.000000 0.000000 10.000000 
L_front_hand03_01 0.000000 0.000000 0.000000 0.000000 0.000000 0.000000 10.000000 
L_front_hand01_02 0.000000 0.000000 0.000000 0.000000 0.000000 0.000000 10.000000 
L_front_hand02_02 0.000000 0.000000 0.000000 0.000000 0.000000 0.000000 10.000000 
L_front_hand03_02 0.000000 0.000000 0.000000 0.000000 0.000000 0.000000 10.000000 
R_forearm 0.000000 0.000000 0.000000 0.000000 0.000000 0.000000 10.000000 
R_front_hand 0.000000 0.000000 0.000000 0.000000 0.000000 0.000000 10.000000 
R_weapon_bone 0.000000 0.000000 0.000000 0.000000 0.000000 0.000000 10.000000 
R_front_hand01_01 0.000000 0.000000 0.000000 0.000000 0.000000 0.000000 10.000000 
R_front_hand02_01 0.000000 0.000000 0.000000 0.000000 0.000000 0.000000 10.000000 
R_front_hand03_01 0.000000 0.000000 0.000000 0.000000 0.000000 0.000000 10.000000 
R_front_hand01_02 0.000000 0.000000 0.000000 0.000000 0.000000 0.000000 10.000000 
R_front_hand02_02 0.000000 0.000000 0.000000 0.000000 0.000000 0.000000 10.000000 
R_front_hand03_02 0.000000 0.000000 0.000000 0.000000 0.000000 0.000000 10.000000 
null_rope01_connect 0.000000 0.000000 0.000000 0.000000 0.000000 0.000000 10.000000 
Rope1_Seg01 0.000000 0.000000 0.000000 0.000000 0.000000 0.000000 10.000000 
Rope1_Seg02 0.000000 0.000000 0.000000 0.000000 0.000000 0.000000 10.000000 
Rope1_Seg03 0.000000 0.000000 0.000000 0.000000 0.000000 0.000000 10.000000 
Rope1_Seg04 0.000000 0.000000 0.000000 0.000000 0.000000 0.000000 10.000000 
Rope1_Seg05 0.000000 0.000000 0.000000 0.000000 0.000000 0.000000 10.000000 
Rope1_Seg06 0.000000 0.000000 0.000000 0.000000 0.000000 0.000000 10.000000 
Rope1_Seg07 0.000000 0.000000 0.000000 0.000000 0.000000 0.000000 10.000000 
Rope1_Seg09 0.000000 0.000000 0.000000 0.000000 0.000000 0.000000 10.000000 
L_mid_hand01 0.000000 0.000000 0.000000 0.000000 0.000000 0.000000 10.000000 
L_mid_hand02 0.000000 0.000000 0.000000 0.000000 0.000000 0.000000 10.000000 
L_mid_hand03 0.000000 0.000000 0.000000 0.000000 0.000000 0.000000 10.000000 
null_rope02_connect 0.000000 0.000000 0.000000 0.000000 0.000000 0.000000 10.000000 
Rope2_Seg01 0.000000 0.000000 0.000000 0.000000 0.000000 0.000000 10.000000 
Rope2_Seg02 0.000000 0.000000 0.000000 0.000000 0.000000 0.000000 10.000000 
Rope2_Seg03 0.000000 0.000000 0.000000 0.000000 0.000000 0.000000 10.000000 
Rope2_Seg04 0.000000 0.000000 0.000000 0.000000 0.000000 0.000000 10.000000 
Rope2_Seg05 0.000000 0.000000 0.000000 0.000000 0.000000 0.000000 10.000000 
Rope2_Seg06 0.000000 0.000000 0.000000 0.000000 0.000000 0.000000 10.000000 
Rope2_Seg07 0.000000 0.000000 0.000000 0.000000 0.000000 0.000000 10.000000 
Rope2_Seg09 0.000000 0.000000 0.000000 0.000000 0.000000 0.000000 10.000000 
R_mid_hand01 0.000000 0.000000 0.000000 0.000000 0.000000 0.000000 10.000000 
R_mid_hand02 0.000000 0.000000 0.000000 0.000000 0.000000 0.000000 10.000000 
R_mid_hand03 0.000000 0.000000 0.000000 0.000000 0.000000 0.000000 10.000000 
spine02 0.000000 0.000000 0.000000 0.000000 0.000000 0.000000 10.000000 
spine03 0.000000 0.000000 0.000000 0.000000 0.000000 0.000000 10.000000 
pelvis 0.000000 0.000000 0.000000 0.000000 0.000000 0.000000 10.000000 
null_rope03_connect 0.000000 0.000000 0.000000 0.000000 0.000000 0.000000 10.000000 
null_rope04_connect 0.000000 0.000000 0.000000 0.000000 0.000000 0.000000 10.000000 
Rope3_Seg01 0.000000 0.000000 0.000000 0.000000 0.000000 0.000000 10.000000 
Rope3_Seg02 0.000000 0.000000 0.000000 0.000000 0.000000 0.000000 10.000000 
Rope3_Seg03 0.000000 0.000000 0.000000 0.000000 0.000000 0.000000 10.000000 
Rope3_Seg04 0.000000 0.000000 0.000000 0.000000 0.000000 0.000000 10.000000 
Rope3_Seg05 0.000000 0.000000 0.000000 0.000000 0.000000 0.000000 10.000000 
Rope3_Seg06 0.000000 0.000000 0.000000 0.000000 0.000000 0.000000 10.000000 
Rope3_Seg07 0.000000 0.000000 0.000000 0.000000 0.000000 0.000000 10.000000 
Rope3_Seg08 0.000000 0.000000 0.000000 0.000000 0.000000 0.000000 10.000000 
Rope3_Seg09 0.000000 0.000000 0.000000 0.000000 0.000000 0.000000 10.000000 
R_rear_hand01 0.000000 0.000000 0.000000 0.000000 0.000000 0.000000 10.000000 
R_rear_hand02 0.000000 0.000000 0.000000 0.000000 0.000000 0.000000 10.000000 
R_rear_hand03 0.000000 0.000000 0.000000 0.000000 0.000000 0.000000 10.000000 
Rope4_Seg01 0.000000 0.000000 0.000000 0.000000 0.000000 0.000000 10.000000 
Rope4_Seg02 0.000000 0.000000 0.000000 0.000000 0.000000 0.000000 10.000000 
Rope4_Seg03 0.000000 0.000000 0.000000 0.000000 0.000000 0.000000 10.000000 
Rope4_Seg04 0.000000 0.000000 0.000000 0.000000 0.000000 0.000000 10.000000 
Rope4_Seg05 0.000000 0.000000 0.000000 0.000000 0.000000 0.000000 10.000000 
Rope4_Seg06 0.000000 0.000000 0.000000 0.000000 0.000000 0.000000 10.000000 
Rope4_Seg07 0.000000 0.000000 0.000000 0.000000 0.000000 0.000000 10.000000 
Rope4_Seg08 0.000000 0.000000 0.000000 0.000000 0.000000 0.000000 10.000000 
Rope4_Seg09 0.000000 0.000000 0.000000 0.000000 0.000000 0.000000 10.000000 
L_rear_hand01 0.000000 0.000000 0.000000 0.000000 0.000000 0.000000 10.000000 
L_rear_hand02 0.000000 0.000000 0.000000 0.000000 0.000000 0.000000 10.000000 
L_rear_hand03 0.000000 0.000000 0.000000 0.000000 0.000000 0.000000 10.000000 
#Beginning of Data. Separated by tabs
#Fr	Tx	Ty	Tz	Rx	Ry	Rz	SF
[MASTER]
7 0.000005 62.822109 0.000000 0.001660 0.001660 0.001660 62.822113
8 0.000005 62.822109 0.000000 0.001660 0.001660 0.001660 62.822113
[root]
7 -16.502295 -62.822117 1500.000000 -77.942307 -26.080452 -93.033691 1501.405640
8 -16.502295 -62.822117 1500.000000 -74.247604 -25.649767 -93.806801 1501.405640
[chest]
7 -84.512650 -34.090519 0.000000 2.777481 -5.922032 177.100098 91.129311
8 -84.512650 -34.090519 0.000000 4.850992 -7.715817 175.924530 91.129311
[L_mid_tent01]
7 27.299568 22.177437 -249.917984 -0.344471 7.254768 42.635101 252.380859
8 27.299564 22.177443 -249.917984 -0.966168 25.817158 42.867943 252.380859
[R_mid_tent01]
7 23.228794 24.509907 226.238495 -168.286713 -68.793312 65.464867 228.744751
8 23.228794 24.509907 226.238495 -139.398026 -73.764091 39.825832 228.744751
[spine01]
7 -0.361383 -0.195265 0.000000 0.524259 0.440467 14.025303 0.410763
8 -0.361383 -0.195265 0.000000 0.429708 0.431955 13.712391 0.410763
[Bip01_Neck]
7 165.484543 71.581718 0.000119 175.896118 1.177290 24.871183 180.302734
8 165.484543 71.581718 0.000119 175.896118 1.177290 24.871180 180.302734
[L_humerus]
7 -13.983130 -135.272980 -120.471481 -154.487320 78.976379 -69.105186 181.680161
8 -13.983130 -135.272980 -120.471481 -154.619141 78.618378 -68.918060 181.680161
[R_humerus]
7 -13.983309 -135.273102 125.287651 -156.116837 -66.912102 -108.806953 184.909012
8 -13.983309 -135.273102 125.287651 -152.961578 -66.188362 -111.606773 184.909012
[weapon_bone]
7 235.964890 -300.705902 0.000000 0.000000 -89.951546 -128.212341 382.234833
8 235.964890 -300.705902 0.000000 0.000000 -89.951546 -128.212341 382.234833
[Bip01_Head]
7 261.355865 108.959396 -2.864224 9.591373 5.842737 -62.452984 283.173523
8 261.355865 108.959404 -2.864223 11.714505 5.842958 -62.452991 283.173523
[eye_left_bone]
7 -24.626970 125.451866 -64.772606 0.000000 -90.000000 -99.840431 143.318359
8 -24.626970 125.451866 -64.772606 0.000000 -90.000000 -99.840431 143.318359
[eye_right_bone]
7 -24.626970 125.451866 64.327362 0.000000 -89.960434 80.159386 143.117676
8 -24.626970 125.451866 64.327362 0.000000 -89.972023 80.159393 143.117676
[L_forearm]
7 322.776093 0.000000 -0.000119 0.000501 0.002293 -65.331215 322.776093
8 322.776093 0.000000 -0.000119 0.000463 0.002301 -67.268784 322.776093
[L_front_hand]
7 241.149185 -0.042021 -3.300071 -179.541809 -2.220937 -3.044826 241.171753
8 241.149185 -0.042021 -3.300071 -179.528610 -2.219070 -3.470660 241.171753
[L_weapon_bone]
7 156.183838 0.000000 0.000000 0.002121 0.001006 39.246849 156.183838
8 156.183838 0.000000 0.000000 0.002106 0.001036 37.623180 156.183838
[L_front_hand01_01]
7 86.095154 20.947098 -0.655860 0.405585 -0.442306 -4.620490 88.609184
8 86.095154 20.947098 -0.655860 0.398153 -0.444748 -3.977060 88.609184
[L_front_hand02_01]
7 86.935165 -11.437475 24.513514 116.959450 3.630817 1.495453 91.046425
8 86.935165 -11.437475 24.513514 116.944931 3.056892 1.202567 91.046425
[L_front_hand03_01]
7 86.637497 -14.123976 -20.424902 -118.420097 -4.656303 -0.152527 90.126129
8 86.637497 -14.123976 -20.424902 -118.399185 -4.094412 -0.457948 90.126129
[L_front_hand01_02]
7 71.020905 -0.000179 0.000030 0.001456 0.001841 -13.347231 71.020905
8 71.020905 -0.000179 0.000030 0.001398 0.001886 -16.919607 71.020905
[L_front_hand02_02]
7 71.020927 -0.000119 0.000060 0.001456 0.001841 -13.347231 71.020927
8 71.020927 -0.000119 0.000060 0.001398 0.001886 -16.919607 71.020927
[L_front_hand03_02]
7 71.020905 -0.000060 0.000060 0.001456 0.001841 -13.347231 71.020905
8 71.020905 -0.000060 0.000060 0.001398 0.001886 -16.919607 71.020905
[R_forearm]
7 322.776428 -0.000060 0.000030 0.200517 -0.073410 -71.169090 322.776428
8 322.776428 -0.000060 0.000030 0.200296 -0.074015 -70.823204 322.776428
[R_front_hand]
7 238.847015 -0.006795 2.210259 -0.593369 1.621761 -8.776319 238.857239
8 238.847015 -0.006795 2.210259 -0.866883 1.492586 -18.785412 238.857239
[R_weapon_bone]
7 155.664093 0.002503 -0.000030 0.002770 0.002424 -135.999847 155.664078
8 155.664093 0.002503 -0.000030 0.002747 0.002450 -137.059357 155.664078
[R_front_hand01_01]
7 87.624611 14.231146 22.918642 -116.960213 3.496675 -1.324139 91.683487
8 87.624611 14.231146 22.918642 -116.940407 2.922817 -1.031181 91.683487
[R_front_hand02_01]
7 89.356956 14.367283 -19.491137 118.419647 -4.257089 0.609827 92.579636
8 89.356956 14.367283 -19.491137 118.400276 -3.688444 0.916733 92.579636
[R_front_hand03_01]
7 87.286232 -22.307278 -0.143439 -0.387970 -0.231462 4.232001 90.091743
8 87.286232 -22.307278 -0.143439 -0.386819 -0.238579 3.588696 90.091743
[R_front_hand01_02]
7 71.020905 0.000060 0.000119 0.001841 0.001456 13.350573 71.020905
8 71.020905 0.000060 0.000119 0.001886 0.001398 16.917963 71.020905
[R_front_hand02_02]
7 71.020844 -0.000030 -0.000119 0.001841 0.001456 13.350573 71.020836
8 71.020844 -0.000030 -0.000119 0.001886 0.001398 16.917963 71.020836
[R_front_hand03_02]
7 71.020905 0.000000 0.000030 0.001841 0.001456 13.350573 71.020905
8 71.020905 0.000000 0.000030 0.001886 0.001398 16.917963 71.020905
[null_rope01_connect]
7 328.732483 0.000000 -0.000238 -28.566204 -80.424843 101.674995 328.732483
8 328.732483 0.000000 -0.000238 -76.697525 -68.126175 146.915634 328.732483
[Rope1_Seg01]
7 0.000000 0.000000 0.000000 152.571808 48.607376 -168.971451 0.000000
8 0.000000 0.000000 0.000000 149.161560 48.337708 -172.528244 0.000000
[Rope1_Seg02]
7 139.999863 -0.000179 0.000000 -1.128485 -10.362870 11.924695 139.999863
8 139.999863 -0.000179 0.000000 0.327275 -17.076735 13.466915 139.999863
[Rope1_Seg03]
7 139.999924 0.000060 -0.000060 -1.626260 -12.326401 14.442433 139.999924
8 139.999924 0.000060 -0.000060 -0.895421 -13.642403 11.894885 139.999924
[Rope1_Seg04]
7 139.999924 -0.000060 -0.000119 -1.351079 -11.032487 13.734532 139.999924
8 139.999924 -0.000060 -0.000119 -0.615296 -8.560429 7.502269 139.999924
[Rope1_Seg05]
7 139.999832 0.000119 -0.000060 -0.667535 -7.692111 7.725626 139.999832
8 139.999832 0.000119 -0.000060 -1.219456 -9.616838 7.176674 139.999832
[Rope1_Seg06]
7 139.999954 0.000119 -0.000060 -1.071649 -6.675947 4.628294 139.999954
8 139.999954 0.000119 -0.000060 -2.531554 -11.348021 7.834928 139.999954
[Rope1_Seg07]
7 139.999985 0.000060 0.000000 -1.084820 -5.643783 4.047183 139.999985
8 139.999985 0.000060 0.000000 -2.162853 -7.465631 4.962490 139.999985
[Rope1_Seg09]
7 121.602913 0.000119 -0.000089 -89.793175 -1.359789 0.847147 121.602913
8 121.602913 0.000119 -0.000089 -89.793175 -1.359789 0.847147 121.602913
[L_mid_hand01]
7 103.859421 1.038730 8.195221 107.640724 -35.120052 -10.901268 104.187431
8 103.859421 1.038730 8.195221 104.690979 -12.127149 -3.683517 104.187431
[L_mid_hand02]
7 105.572853 -4.139662 -10.864139 -143.987701 28.191181 -32.423386 106.211075
8 105.572853 -4.139662 -10.864139 -136.986481 12.817480 -12.781195 106.211075
[L_mid_hand03]
7 104.641464 17.579376 -3.913581 -15.413661 10.840238 38.196957 106.179977
8 104.641464 17.579376 -3.913581 -18.393951 3.792082 15.147090 106.179977
[null_rope02_connect]
7 328.732849 0.000179 -0.000119 -142.989929 10.770448 -9.470641 328.732849
8 328.732849 0.000179 -0.000119 -145.983749 -1.212007 -16.173433 328.732849
[Rope2_Seg01]
7 -0.000070 0.000137 0.000127 39.464432 -1.098656 -48.194603 0.000199
8 -0.000069 0.000137 0.000123 44.550808 -26.681307 -58.398800 0.000197
[Rope2_Seg02]
7 139.999741 -0.000060 -0.000119 -79.534561 23.018034 6.390864 139.999756
8 139.999741 -0.000060 -0.000119 -25.324598 24.080366 12.931034 139.999756
[Rope2_Seg03]
7 140.000107 0.000030 0.000000 -44.511402 -3.230026 39.566383 140.000107
8 140.000107 0.000030 0.000000 -42.614628 23.939428 40.328396 140.000107
[Rope2_Seg04]
7 139.999802 0.000000 -0.000060 -6.900187 -19.634052 17.985310 139.999802
8 139.999802 0.000000 -0.000060 -12.297306 -6.398344 24.690578 139.999802
[Rope2_Seg05]
7 139.999985 -0.000060 0.000119 -1.079405 -10.709787 7.275756 139.999985
8 139.999985 -0.000060 0.000119 -3.454213 -4.933189 13.074267 139.999985
[Rope2_Seg06]
7 139.999893 -0.000030 -0.000119 -0.238763 -5.723069 3.817334 139.999893
8 139.999893 -0.000030 -0.000119 -0.964139 -3.162009 6.790842 139.999893
[Rope2_Seg07]
7 139.999893 0.000060 -0.000060 -0.047239 -3.267583 2.234564 139.999893
8 139.999893 0.000060 -0.000060 -0.305180 -1.913132 3.850843 139.999893
[Rope2_Seg09]
7 121.338966 0.000089 -0.000060 33.793236 -1.359788 -0.847141 121.338966
8 121.338966 0.000089 -0.000060 33.793236 -1.359788 -0.847141 121.338966
[R_mid_hand01]
7 104.680779 11.144459 -10.335981 -40.238312 27.648584 31.465513 105.778534
8 104.680779 11.144459 -10.335981 -46.282299 11.920200 13.898060 105.778534
[R_mid_hand02]
7 104.070427 2.443552 8.231699 72.145821 -35.985065 11.253941 104.424065
8 104.070427 2.443552 8.231699 75.179291 -14.113751 4.227918 104.424065
[R_mid_hand03]
7 106.028137 -11.221827 -5.996406 -168.523941 10.951766 -40.389626 106.788818
8 106.028137 -11.221827 -5.996406 -165.232071 5.716866 -17.994591 106.788818
[spine02]
7 129.756927 0.001550 0.000119 -0.200458 -4.176422 -5.050529 129.756927
8 129.756927 0.001550 0.000119 -0.185554 -4.164105 -5.271533 129.756927
[spine03]
7 78.689285 0.074127 -4.161736 1.009584 3.008030 1.265088 78.799294
8 78.711533 0.070221 -3.944610 1.144953 2.635590 2.803682 78.810341
[pelvis]
7 169.435242 0.051022 0.000000 -175.914444 2.560550 12.273298 169.435257
8 169.435242 0.051022 0.000000 162.909119 8.463799 13.400225 169.435257
[null_rope03_connect]
7 -1.257226 -2.466202 137.391083 -176.425140 73.934814 -90.101143 137.418976
8 -1.257226 -2.466202 137.391083 65.475883 85.384888 155.612091 137.418976
[null_rope04_connect]
7 -1.259640 -2.480268 -137.844437 -176.425140 73.934814 -90.101143 137.872513
8 -1.259640 -2.480268 -137.844437 65.475883 85.384888 155.612091 137.872513
[Rope3_Seg01]
7 0.000000 0.000000 0.000000 -140.318390 19.207411 -110.550438 0.000000
8 0.000000 0.000000 0.000000 -131.938110 8.611558 -126.862885 0.000000
[Rope3_Seg02]
7 139.999924 -0.000119 0.000060 18.540165 23.820862 35.849072 139.999924
8 139.999924 -0.000119 0.000060 54.390377 27.193216 20.270071 139.999924
[Rope3_Seg03]
7 139.999924 -0.000119 0.000119 137.595078 25.246531 15.123557 139.999924
8 139.999924 -0.000119 0.000119 61.982231 20.952206 -8.143847 139.999924
[Rope3_Seg04]
7 139.999924 0.000119 0.000000 20.943874 4.244505 -16.735340 139.999924
8 139.999924 0.000119 0.000000 21.808996 6.784473 -24.170340 139.999924
[Rope3_Seg05]
7 139.999924 -0.000238 0.000060 14.040450 4.477106 -19.060638 139.999924
8 139.999924 -0.000238 0.000060 7.702308 -1.209450 -22.560602 139.999924
[Rope3_Seg06]
7 139.999893 -0.000119 -0.000060 4.635896 -0.224064 -11.097282 139.999893
8 139.999893 -0.000119 -0.000060 1.759686 -1.724386 -8.377511 139.999893
[Rope3_Seg07]
7 139.999771 0.000060 -0.000119 1.680212 -0.997425 -5.134196 139.999771
8 139.999771 0.000060 -0.000119 0.975043 -1.098755 -4.465241 139.999771
[Rope3_Seg08]
7 139.999985 -0.000060 0.000000 1.087433 -0.662928 -2.957715 139.999985
8 139.999985 -0.000060 0.000000 0.733764 -0.669773 -2.530173 139.999985
[Rope3_Seg09]
7 90.185997 -0.000179 -0.000060 89.793228 -1.359877 -0.847183 90.185997
8 90.185997 -0.000179 -0.000060 89.793228 -1.359877 -0.847183 90.185997
[R_rear_hand01]
7 103.366196 -6.073594 -10.757982 -166.970291 21.129854 -46.704182 104.101845
8 103.366196 -6.073594 -10.757982 -166.970291 21.129854 -46.704182 104.101845
[R_rear_hand02]
7 100.509819 12.039542 -7.992327 -28.148870 27.804201 44.102722 101.543350
8 100.509819 12.039542 -7.992327 -28.148870 27.804201 44.102722 101.543350
[R_rear_hand03]
7 101.539970 5.215704 5.435467 81.628380 -47.127724 10.016966 101.819031
8 101.539970 5.215704 5.435467 81.628380 -47.127724 10.016966 101.819031
[Rope4_Seg01]
7 -0.000014 -0.000070 -0.000127 37.966682 -0.469029 -52.086205 0.000146
8 -0.000014 -0.000069 -0.000123 52.905167 13.020763 -57.560875 0.000142
[Rope4_Seg02]
7 139.999985 0.000060 0.000119 -20.879826 9.777157 19.217016 139.999985
8 139.999985 0.000060 0.000119 -7.479283 17.709461 14.543256 139.999985
[Rope4_Seg03]
7 139.999924 0.000000 -0.000238 -62.770561 2.123900 30.685240 139.999924
8 139.999924 0.000000 -0.000238 -116.248306 19.612747 23.000229 139.999924
[Rope4_Seg04]
7 139.999985 0.000000 0.000119 -24.432428 -19.765179 11.491987 139.999985
8 139.999985 0.000000 0.000119 -24.715553 -18.713631 4.347036 139.999985
[Rope4_Seg05]
7 139.999802 -0.000060 -0.000119 -6.529788 -9.895022 3.357209 139.999802
8 139.999802 -0.000060 -0.000119 -2.929152 -12.012242 -3.118087 139.999802
[Rope4_Seg06]
7 139.999924 0.000000 0.000060 -5.278045 -7.784964 4.371446 139.999924
8 139.999924 0.000000 0.000060 -0.671774 -15.569430 -5.744385 139.999924
[Rope4_Seg07]
7 139.999802 0.000000 0.000000 -3.355508 -8.153732 2.631956 139.999802
8 139.999802 0.000000 0.000000 0.112648 -14.369851 -5.507908 139.999802
[Rope4_Seg08]
7 139.999924 0.000000 0.000119 -3.142503 -5.824940 1.246509 139.999924
8 139.999924 0.000000 0.000119 -1.383932 -8.920783 -3.423211 139.999924
[Rope4_Seg09]
7 90.185791 0.000060 0.000060 -135.617828 2.228885 0.850567 90.185791
8 90.185791 0.000060 0.000060 -135.617828 2.228885 0.850567 90.185791
[L_rear_hand01]
7 101.696655 -8.392275 -7.654577 -27.705481 -28.251705 134.947800 102.329041
8 101.696655 -8.392275 -7.654577 -27.705481 -28.251705 134.947800 102.329041
[L_rear_hand02]
7 102.726799 -1.568258 5.773216 81.477219 48.065086 169.775513 102.900848
8 102.726799 -1.568258 5.773216 81.477219 48.065086 169.775513 102.900848
[L_rear_hand03]
7 104.552910 9.721220 -10.420293 -167.330078 -21.338425 -132.303940 105.519653
8 104.552910 9.721220 -10.420293 -167.330078 -21.338425 -132.303940 105.519653
